<svg version="1.1" xmlns="http://www.w3.org/2000/svg" viewBox="0 0 250 250"><desc>Created with Snap</desc><defs></defs><g transform="matrix(0.1368,0,0,0.1368,42.8571,169.3978)"><rect x="-313.34400005340575" y="-1045.5040161132813" width="1827.8400634765626" height="1441.7920288085938" fill="#37393a" style=""></rect><g><g transform="matrix(1.024,0,0,-1.024,0,0)"><path d="M36 -87Q9 -72 1 -56Q-6 -40 -6 -28Q-6 -1 14 45Q34 92 67 151Q101 211 143 276Q110 278 82 279Q55 280 20 280L-3 280Q10 314 39 327Q69 341 109 341Q126 341 144 339Q163 337 183 335Q233 408 283 475Q333 542 377 595Q422 648 455 680Q497 721 518 721Q531 721 547 711Q563 701 581 685Q571 677 555 643Q540 610 522 559Q505 508 487 447Q470 386 456 323Q442 261 433 204Q425 147 425 103Q425 64 433 44Q441 24 461 24Q485 24 518 59Q552 95 593 173L608 157Q578 75 529 23Q481 -29 427 -29Q381 -29 361 10Q342 50 342 119Q342 145 345 177Q349 209 356 251Q312 258 277 262Q243 266 212 270Q164 185 119 93Q74 2 36 -87ZM365 295Q379 357 397 419Q416 482 436 539Q457 597 476 642Q446 619 407 573Q369 527 327 463Q285 399 242 324Q273 317 304 309Q335 302 365 295ZM684 -30Q665 -30 646 -21Q628 -12 615 8Q602 28 602 58Q602 91 618 132Q634 173 661 214Q689 255 725 289Q761 323 801 344Q841 365 881 365Q903 365 915 357Q928 350 928 333Q928 328 926 323Q925 318 920 313Q915 320 905 322Q896 325 884 325Q851 325 821 306Q791 288 765 258Q740 228 721 193Q703 159 693 126Q683 94 683 71Q683 51 691 39Q700 27 716 27Q743 27 781 59Q819 92 858 152Q898 213 930 296Q952 353 976 412Q1000 472 1024 527Q1048 583 1071 626Q1094 669 1115 694Q1136 720 1154 720Q1164 720 1171 712Q1179 704 1179 692Q1179 676 1162 638Q1146 600 1120 547Q1094 495 1065 433Q1036 372 1010 308Q984 244 967 183Q951 122 951 69Q951 44 955 33Q959 23 972 23Q994 23 1021 40Q1048 58 1076 91Q1104 125 1127 171L1143 158Q1122 104 1088 62Q1055 21 1016 -3Q978 -26 941 -26Q902 -26 886 -1Q871 25 871 57Q871 73 874 93Q877 114 882 136Q851 88 816 50Q781 13 747 -9Q714 -30 684 -30Z" fill="#ffffff" style=""></path></g></g></g></svg>